<svg width="45" height="45" id="Layer_1" enable-background="new 0 0 96 96" viewBox="0 0 96 96" xmlns="http://www.w3.org/2000/svg"><path d="m74.937 84.148h-49.512c-.645 0-1.169-.523-1.169-1.169s.523-1.169 1.169-1.169h49.512c.645 0 1.169.523 1.169 1.169s-.523 1.169-1.169 1.169zm-56.407-2.337h-12.712c-.645 0-1.169.523-1.169 1.169s.523 1.169 1.169 1.169h12.712c.645 0 1.169-.523 1.169-1.169s-.524-1.169-1.169-1.169zm40.313 5.589h-19.936c-.645 0-1.169.523-1.169 1.169s.523 1.169 1.169 1.169h19.935c.645 0 1.169-.523 1.169-1.169s-.523-1.169-1.168-1.169zm31.339 0h-24.444c-.645 0-1.169.523-1.169 1.169s.523 1.169 1.169 1.169h24.444c.645 0 1.169-.523 1.169-1.169s-.523-1.169-1.169-1.169zm-20.684-39.205c.136.359.086.762-.132 1.078s-.578.504-.961.504h-22.79c-.645 0-1.169-.523-1.169-1.169v-17.603c0-.331.14-.647.387-.868.246-.222.575-.329.904-.294 5.314.557 10.354 2.593 14.575 5.888 4.155 3.244 7.332 7.554 9.186 12.464zm-2.846-.756c-3.641-7.988-11.198-13.744-19.869-15.103v15.103zm26.348 13.274v7.035c0 3.44-2.798 6.238-6.238 6.238h-3.959c-.351 0-.684-.158-.906-.43s-.31-.63-.239-.974c.171-.831.257-1.687.257-2.544 0-6.933-5.64-12.573-12.573-12.573s-12.572 5.64-12.572 12.573c0 .857.087 1.713.257 2.544.071.344-.017.702-.239.974s-.555.43-.906.43h-16.376c-.351 0-.684-.158-.906-.43s-.31-.63-.239-.974c.171-.831.257-1.687.257-2.544 0-6.933-5.64-12.573-12.573-12.573s-12.573 5.64-12.573 12.573c0 .857.087 1.713.257 2.544.071.344-.017.702-.239.974s-.555.43-.906.43h-3.346c-3.44 0-6.238-2.798-6.238-6.238v-15.02c0-2.917 2.373-5.289 5.289-5.289h2.968c2.185-6.344 6.187-11.81 11.614-15.849 3.279-2.44 6.91-4.226 10.758-5.314v-2.81h-12.146c-.645 0-1.169-.523-1.169-1.169 0-.645.523-1.169 1.169-1.169h3.152v-8.557c0-3.479 2.83-6.31 6.31-6.31h15.422c3.479 0 6.31 2.831 6.31 6.31v.517h6.958c.645 0 1.169.523 1.169 1.169v6.872h3.152c.645 0 1.169.523 1.169 1.169 0 .645-.523 1.169-1.169 1.169h-12.147v2.81c3.848 1.088 7.48 2.874 10.758 5.314 5.427 4.039 9.429 9.505 11.614 15.849h5.546c7.319-.001 13.273 5.954 13.273 13.273zm-9.124-6.514v3.2c0 1.764 1.435 3.2 3.2 3.2h3.583c-.025-2.395-.821-4.608-2.154-6.4zm-25.411-38.772h-15.307v5.703h15.308v-5.703zm-31.492 5.702h13.847v-6.872c0-.645.523-1.169 1.169-1.169h8.35v-.517c0-2.19-1.782-3.972-3.972-3.972h-15.422c-2.19 0-3.972 1.782-3.972 3.972zm8.994 4.578c2.199-.451 4.458-.682 6.752-.682s4.553.231 6.752.682v-2.24h-13.504zm-26.961 27.351h-3.668v2.857h3.668zm-3.668 5.194v2.857h3.668v-2.857zm5.883 13.397c-.057-.534-.086-1.072-.086-1.611 0-.378.019-.751.047-1.121h-5.665c.498 1.581 1.978 2.732 3.721 2.732zm43.298 0c-.057-.534-.086-1.072-.086-1.611 0-.378.019-.751.047-1.121h-13.571c.028.371.047.744.047 1.121 0 .538-.029 1.077-.086 1.611zm29.325-5.07h6.819v-3.643h-3.586c-3.053 0-5.538-2.484-5.538-5.538v-4.368c0-.645.523-1.169 1.169-1.169h3.43c-1.803-1.31-4.018-2.085-6.411-2.085h-6.39c-.51 0-.961-.33-1.114-.816-4.087-12.918-15.943-21.597-29.504-21.597s-25.417 8.679-29.503 21.598c-.154.486-.605.816-1.114.816h-3.813c-.851 0-1.617.364-2.157.943h3.048c1.193 0 2.164.971 2.164 2.164v8.4c0 1.193-.971 2.164-2.164 2.164h-3.842v3.132h6.207c1.564-6.559 7.47-11.452 14.501-11.452s12.937 4.893 14.501 11.452h14.295c1.564-6.559 7.47-11.452 14.501-11.452 7.03 0 12.936 4.893 14.501 11.451zm6.639 2.338h-6.276c.028.371.047.744.047 1.121 0 .538-.029 1.077-.086 1.611h2.595c1.743 0 3.222-1.151 3.72-2.732zm-75.274 4.164c-.277-.987-.417-2.011-.417-3.043 0-6.205 5.048-11.253 11.253-11.253s11.253 5.048 11.253 11.253c0 1.038-.142 2.068-.421 3.06-1.36 4.824-5.815 8.194-10.832 8.194-5.025-.001-9.481-3.377-10.836-8.211zm2.251-.631c1.073 3.829 4.604 6.504 8.585 6.504 3.975 0 7.504-2.669 8.582-6.49.222-.785.334-1.601.334-2.425 0-4.916-3.999-8.916-8.916-8.916-4.916 0-8.915 4-8.915 8.916 0 .818.111 1.629.33 2.411zm41.057.669c-.284-.998-.427-2.035-.427-3.081 0-6.205 5.048-11.253 11.253-11.253s11.253 5.048 11.253 11.253c0 1.052-.145 2.094-.432 3.098-1.372 4.802-5.822 8.156-10.821 8.156-5.008-.001-9.459-3.361-10.826-8.173zm2.249-.639c1.083 3.811 4.61 6.473 8.577 6.473 3.961 0 7.486-2.657 8.573-6.46.227-.795.342-1.621.342-2.455 0-4.916-3.999-8.916-8.915-8.916s-8.915 4-8.915 8.916c-.001.83.113 1.651.338 2.442zm-18.237-42.449c.228.22.357.524.357.841v17.736c0 .645-.523 1.169-1.169 1.169h-24.683c-.384 0-.743-.189-.961-.504-.218-.316-.268-.719-.132-1.078 4.084-10.819 14.186-18.077 25.735-18.491.318-.012.625.107.853.327zm-1.98 2.081c-9.529.778-17.83 6.638-21.766 15.328h21.766zm-19.678 19.223h-3.837c-.645 0-1.169.523-1.169 1.169s.523 1.169 1.169 1.169h3.837c.645 0 1.169-.523 1.169-1.169s-.524-1.169-1.169-1.169zm28.58 0h-3.837c-.645 0-1.169.523-1.169 1.169s.523 1.169 1.169 1.169h3.837c.645 0 1.169-.523 1.169-1.169s-.524-1.169-1.169-1.169zm13.575 18.703c0-3.483 2.834-6.317 6.317-6.317s6.317 2.834 6.317 6.317-2.834 6.317-6.317 6.317-6.317-2.834-6.317-6.317zm5.148 3.803v-2.634h-2.634c.386 1.255 1.378 2.247 2.634 2.634zm4.972-2.634h-2.634v2.634c1.255-.387 2.247-1.379 2.634-2.634zm-2.634-4.972v2.634h2.634c-.387-1.255-1.379-2.248-2.634-2.634zm-4.972 2.634h2.634v-2.634c-1.256.386-2.248 1.379-2.634 2.634zm-45.811 1.169c0-3.483 2.834-6.317 6.317-6.317s6.317 2.834 6.317 6.317-2.834 6.317-6.317 6.317-6.317-2.834-6.317-6.317zm5.148 3.803v-2.634h-2.634c.386 1.255 1.378 2.247 2.634 2.634zm4.972-2.634h-2.634v2.634c1.255-.387 2.247-1.379 2.634-2.634zm-2.635-4.972v2.634h2.634c-.386-1.255-1.378-2.248-2.634-2.634zm-4.972 2.634h2.634v-2.634c-1.255.386-2.247 1.379-2.634 2.634z"/></svg>